# xmcd
#
# Track frame offsets:
#	150
#	22766
#	74180
#	133515
#	191244
#	207268
#	237039
#
# Disc length: 3595 seconds
#
# Revision: 1
# Processed by: cddbd v1.5.2PL0 Copyright (c) Steve Scherf et al.
# Submitted via: audiograbber 1.83.01
#
DISCID=620e0907
DTITLE=Grateful Dead - 76-06-04 Paramount Theatre, Portland OR
DYEAR=1900
DGENRE=
TTITLE0=Help On The Way
TTITLE1=Slipknot!
TTITLE2=Franklin's Tower
TTITLE3=Playing In The Band
TTITLE4=Tuning
TTITLE5=Might As Well
TTITLE6=Samson and Delilah
EXTD=
EXTT0=
EXTT1=
EXTT2=
EXTT3=
EXTT4=
EXTT5=
EXTT6=
PLAYORDER=
